<?xml version="1.0" encoding="utf-8"?>
<!-- Generator: Adobe Illustrator 23.0.3, SVG Export Plug-In . SVG Version: 6.00 Build 0)  -->
<svg version="1.1" id="Layer_1" xmlns="http://www.w3.org/2000/svg" xmlns:xlink="http://www.w3.org/1999/xlink" x="0px" y="0px"
	 viewBox="0 0 170.1 169.9" style="enable-background:new 0 0 170.1 169.9;" xml:space="preserve">
<style type="text/css">
	.st0{fill-rule:evenodd;clip-rule:evenodd;fill:#FFFFFF;}
	.st1{fill-rule:evenodd;clip-rule:evenodd;fill:#1A1A1A;}
</style>
<g>
	<path class="st0" d="M0,85C0,37.9,38.1,0,85.1,0c46.9,0,84.9,37.9,84.9,85c0,46.9-38.1,84.9-84.9,84.9C38.1,169.9,0,131.8,0,85
		L0,85L0,85z M65.9,43.2v28.5l5.9,6.1l-5.9,6.2v39.5l10.6,10.8H110l10.6-10.4V83.5l-5.8-5.7l5.8-5.7V42.8L110,32.4H76.3L65.9,43.2
		L65.9,43.2L65.9,43.2z M21,38.4v9.9h12.7v85.9h19.9V32.4H38.1L21,38.4L21,38.4L21,38.4z M127.2,65.2h11.4v11.3h9.9V65.2h11.3v-9.9
		h-11.3V43.9h-9.9v11.3h-11.4V65.2L127.2,65.2L127.2,65.2z M86,90.2h14.8v26.6H86V90.2L86,90.2z M86,49.5h14.8v23.6H86V49.5L86,49.5
		z"/>
	<polygon class="st1" points="33.7,134.2 33.7,48.3 21,48.3 21,38.4 38.1,32.4 53.6,32.4 53.6,134.2 33.7,134.2 	"/>
	<path class="st1" d="M76.5,134.2l-10.6-10.8V83.9l5.9-6.2l-5.9-6.1V43.2l10.4-10.8H110l10.6,10.4v29.2l-5.8,5.7l5.8,5.7v40.2
		L110,134.2H76.5L76.5,134.2L76.5,134.2z M86,116.9h14.8V90.2H86V116.9L86,116.9z M86,73.2h14.8V49.5H86V73.2L86,73.2z"/>
	<polygon class="st1" points="138.6,76.5 138.6,65.2 127.2,65.2 127.2,55.3 138.6,55.3 138.6,43.9 148.5,43.9 148.5,55.3 
		159.8,55.3 159.8,65.2 148.5,65.2 148.5,76.5 138.6,76.5 	"/>
</g>
</svg>
