<?xml version="1.0" encoding="utf-8"?>
<!-- Generator: Adobe Illustrator 27.5.0, SVG Export Plug-In . SVG Version: 6.00 Build 0)  -->
<svg version="1.1" id="Layer_1" xmlns="http://www.w3.org/2000/svg" xmlns:xlink="http://www.w3.org/1999/xlink" x="0px" y="0px"
	 viewBox="0 0 2000 693.4" style="enable-background:new 0 0 2000 693.4;" xml:space="preserve">
<g>
	<g>
		<path d="M1774,224.2c0-2.1-1.2-3.1-3.7-3.1h-5v6.2h5C1772.8,227.4,1774,226.3,1774,224.2z"/>
	</g>
	<g>
		<path d="M1638.8,274.9c-13.3,0-29.8,3.1-39.1,8.9v109c15.6,21.8,32.9,25.8,52,25.8c28.9,0,53.4-28.5,53.4-72.1
			C1705.1,305.6,1680.7,274.9,1638.8,274.9z"/>
	</g>
	<g>
		<path d="M1355.6,385.2c0,23.6,17.8,38.7,46.3,38.7c17.8,0,32.9-3.5,43.1-9.3v-44c-9.3-8-28.5-16.5-47.1-16.5
			C1375.6,354,1355.6,365.2,1355.6,385.2z"/>
	</g>
	<g>
		<path d="M1769.3,211.7c-9.5,0-16.2,6.6-16.2,16.2s6.7,16.2,16.2,16.2c9.7,0,16.2-6.5,16.2-16.2
			C1785.4,218.1,1779.1,211.7,1769.3,211.7z M1774.1,236.1l-4.1-6.5h-4.6v6.5h-2.5V219h7.6c4,0,6.1,1.8,6.1,5.3c0,2.8-1.3,4.6-4,5.1
			l4.5,6.7L1774.1,236.1L1774.1,236.1z"/>
	</g>
	<g>
		<path d="M0,0v693.4h2000V0H0z M319.5,466.9c-40.3,3.3-70.9-9.8-90.1-21.5l17.8-43.4c14.8,12.2,43.5,23.6,64.7,21.9
			c13.7-1.1,29.2-8.2,27.6-28.2c-2.5-30.1-101.3-37.1-106.2-96.5c-2.9-35,25.5-69.9,73.3-73.9c41.7-3.4,68.4,11.7,79.7,19.3
			l-17.5,41.6c-4.4-4.1-26.6-19.7-48.3-17.9c-15.1,1.2-27.3,9.9-26.2,22.7c2.9,34.6,99.2,33.7,104.5,97.6
			C402.3,432.4,371.3,462.6,319.5,466.9z M490.1,460.3h-58.3V233.1h58.3V460.3z M460.8,211.1c-20.9,0-36.5-14.7-36.5-36.5
			c0-21.8,15.6-36.5,36.5-36.5c22.2,0,36.5,15.1,36.5,36.5C497.2,196.4,482.1,211.1,460.8,211.1z M741.8,460.3h-58.3V338.9
			c0-37.4-4.9-61.4-40-61.4c-20,0-42.3,16-48.5,25.4v157.4h-58.3V233.1h58.3v23.1c11.1-10.7,37.4-29.8,72-29.8
			c48.5,0,74.7,24.9,74.7,81.8L741.8,460.3L741.8,460.3z M861.9,466.9c-40.3,3.3-70.9-9.8-90.2-21.5l17.8-43.4
			c14.8,12.2,43.5,23.6,64.7,21.9c13.7-1.1,29.2-8.2,27.6-28.2c-2.5-30.1-101.3-37.1-106.2-96.5c-2.9-35,25.5-69.9,73.3-73.9
			c41.7-3.4,68.4,11.7,79.7,19.3l-17.5,41.6c-4.3-4.1-26.6-19.7-48.3-17.9c-15.1,1.2-27.3,9.9-26.2,22.7
			c2.9,34.6,99.2,33.7,104.5,97.6C944.7,432.4,913.7,462.6,861.9,466.9z M1173,464.8l-49.8-125.9l-49.4,125.9H1044l-95.2-231.7h61.4
			l52.9,133.4l54.7-132.1h10.7l54.3,133.9l53.8-135.2h60.9l-95.2,231.7L1173,464.8L1173,464.8z M1500.6,439
			c-17.3,13.8-50.7,28-103.2,28c-69.8,0-101.8-38.7-101.8-82.7c0-52,49.8-71.6,92.5-71.6c15.6,0,44,5.3,56.9,15.1v-23.1
			c0-18.7-13.8-31.6-44.9-31.6c-29.4,0-54.3,9.4-63.2,13.4l-16.9-40.9c20.5-9.8,48.5-19.1,84.9-19.1c75.6,0,95.6,36,95.6,92.1
			L1500.6,439L1500.6,439z M1656.2,466.5c-17.8,0-41.4-8.5-56.5-19.5v78.8l-58.3,29.5V251.7c32-17.3,70.3-25.4,101.8-25.4
			c64.1,0,123.7,39.6,123.7,119.6C1766.9,408.7,1727.4,466.5,1656.2,466.5z M1769.3,246.1c-10.4,0-18.2-7.3-18.2-18.2
			c0-10.9,7.8-18.2,18.2-18.2c11.1,0,18.2,7.6,18.2,18.2C1787.5,238.8,1779.9,246.1,1769.3,246.1z"/>
	</g>
</g>
</svg>
