<?xml version="1.0" encoding="utf-8"?>
<!-- Generator: Adobe Illustrator 26.3.1, SVG Export Plug-In . SVG Version: 6.00 Build 0)  -->
<svg version="1.1" id="Layer_1" xmlns="http://www.w3.org/2000/svg" xmlns:xlink="http://www.w3.org/1999/xlink" x="0px" y="0px"
	 viewBox="0 0 400 138.7" style="enable-background:new 0 0 400 138.7;" xml:space="preserve">
<style type="text/css">
	.st0{fill:none;}
	.st1{fill:#FFFFFF;}
</style>
<g>
	<path class="st0" d="M0,0v138.7h400V0H0z"/>
</g>
<g>
	<g>
		<path class="st1" d="M63.9,93.4c-8.1,0.7-14.2-2-18-4.3l3.6-8.7c3,2.4,8.7,4.7,12.9,4.4c2.7-0.2,5.8-1.6,5.5-5.6
			c-0.5-6-20.3-7.4-21.2-19.3c-0.6-7,5.1-14,14.7-14.8c8.3-0.7,13.7,2.3,15.9,3.9l-3.5,8.3c-0.9-0.8-5.3-3.9-9.7-3.6
			c-3,0.2-5.5,2-5.2,4.5c0.6,6.9,19.8,6.7,20.9,19.5C80.5,86.5,74.3,92.5,63.9,93.4z M98,92.1H86.4V46.6H98V92.1z M92.2,42.2
			c-4.2,0-7.3-2.9-7.3-7.3s3.1-7.3,7.3-7.3c4.4,0,7.3,3,7.3,7.3C99.4,39.3,96.4,42.2,92.2,42.2z M148.4,92.1h-11.7V67.8
			c0-7.5-1-12.3-8-12.3c-4,0-8.5,3.2-9.7,5.1v31.5h-11.7V46.6H119v4.6c2.2-2.1,7.5-6,14.4-6c9.7,0,14.9,5,14.9,16.4v30.5H148.4z
			 M172.4,93.4c-8.1,0.7-14.2-2-18-4.3l3.6-8.7c3,2.4,8.7,4.7,12.9,4.4c2.7-0.2,5.8-1.6,5.5-5.6c-0.5-6-20.3-7.4-21.2-19.3
			c-0.6-7,5.1-14,14.7-14.8c8.3-0.7,13.7,2.3,15.9,3.9l-3.5,8.3c-0.9-0.8-5.3-3.9-9.7-3.6c-3,0.2-5.5,2-5.2,4.5
			c0.6,6.9,19.8,6.7,20.9,19.5C188.9,86.5,182.7,92.5,172.4,93.4z M234.6,93l-10-25.2L214.8,93h-6l-19-46.3H202l10.6,26.7L223.5,47
			h2.1l10.9,26.8l10.8-27h12.2l-19,46.3h-5.9V93z"/>
	</g>
	<path class="st1" d="M281,45.4c-7.3,0-12.9,1.8-17,3.8l3.4,8.2c1.7-0.8,6.7-2.7,12.6-2.7c6.2,0,9,2.6,9,6.3v4.6
		c-2.6-1.9-8.3-3-11.4-3c-8.5,0-18.5,3.9-18.5,14.3c0,8.8,6.4,16.5,20.4,16.5c10.5,0,17.1-2.8,20.6-5.6v-24
		C300.1,52.6,296.1,45.4,281,45.4z M289,82.8c-2,1.2-5,1.9-8.6,1.9c-5.7,0-9.3-3-9.3-7.7c0-4,4-6.2,8.5-6.3c3.7,0,7.5,1.7,9.4,3.3
		V82.8z"/>
	<path class="st1" d="M328.6,45.2c-6.3,0-14,1.6-20.4,5.1V111l11.7-5.9V89.4c3,2.2,7.7,3.9,11.3,3.9c14.3,0,22.2-11.6,22.1-24.2
		C353.3,53.1,341.4,45.2,328.6,45.2z M330.4,83.8c-3.8,0-7.3-0.8-10.4-5.2V56.8c1.8-1.2,5.1-1.8,7.8-1.8c8.3,0,13.2,6.1,13.3,14.4
		C341.1,78.1,336.2,83.8,330.4,83.8z"/>
	<g>
		<path class="st1" d="M353.9,42c-2,0-3.6,1.4-3.6,3.6c0,2.1,1.5,3.6,3.6,3.6c2.1,0,3.6-1.4,3.6-3.6C357.5,43.5,356.1,42,353.9,42z
			 M353.9,48.7c-1.9,0-3.2-1.3-3.2-3.2c0-1.9,1.3-3.2,3.2-3.2c1.9,0,3.2,1.3,3.2,3.2C357.1,47.4,355.8,48.7,353.9,48.7z"/>
		<path class="st1" d="M354.5,45.9c0.5-0.1,0.8-0.4,0.8-1c0-0.7-0.4-1.1-1.2-1.1h-1.5v3.4h0.5v-1.3h0.9l0.8,1.3h0.6L354.5,45.9z
			 M353.1,45.5v-1.2h1c0.5,0,0.7,0.2,0.7,0.6c0,0.4-0.2,0.6-0.7,0.6H353.1z"/>
	</g>
</g>
</svg>
