<svg id="Group_8452" data-name="Group 8452" xmlns="http://www.w3.org/2000/svg" xmlns:xlink="http://www.w3.org/1999/xlink" width="30" height="30" viewBox="0 0 30 30">
  <defs>
    <clipPath id="clip-path">
      <rect id="Rectangle_16796" data-name="Rectangle 16796" width="30" height="30" fill="#7c7c7c"/>
    </clipPath>
  </defs>
  <g id="Group_8451" data-name="Group 8451" clip-path="url(#clip-path)">
    <path id="Path_1955" data-name="Path 1955" d="M21.923,0H8.077A8.086,8.086,0,0,0,0,8.077V21.923A8.086,8.086,0,0,0,8.077,30H21.923A8.086,8.086,0,0,0,30,21.923V8.077A8.086,8.086,0,0,0,21.923,0m5.77,21.923a5.771,5.771,0,0,1-5.77,5.769H8.077a5.77,5.77,0,0,1-5.769-5.769V8.077A5.77,5.77,0,0,1,8.077,2.308H21.923a5.771,5.771,0,0,1,5.77,5.769ZM15,8.077A6.923,6.923,0,1,0,21.923,15,6.929,6.929,0,0,0,15,8.077m0,11.538A4.615,4.615,0,1,1,19.616,15,4.613,4.613,0,0,1,15,19.615M24.231,7.5A1.731,1.731,0,1,1,22.5,5.769,1.728,1.728,0,0,1,24.231,7.5" fill="#7c7c7c"/>
  </g>
</svg>
