<svg id="Group_8455" data-name="Group 8455" xmlns="http://www.w3.org/2000/svg" xmlns:xlink="http://www.w3.org/1999/xlink" width="26.357" height="30" viewBox="0 0 26.357 30">
  <defs>
    <clipPath id="clip-path">
      <rect id="Rectangle_16797" data-name="Rectangle 16797" width="26.357" height="30" fill="#7c7c7c"/>
    </clipPath>
  </defs>
  <g id="Group_8454" data-name="Group 8454" clip-path="url(#clip-path)">
    <path id="Path_1956" data-name="Path 1956" d="M26.343,7.512a7.559,7.559,0,0,1-4.567-1.526A7.576,7.576,0,0,1,18.9,1.418,7.616,7.616,0,0,1,18.756,0h-4.9V13.385l-.006,7.331a4.441,4.441,0,1,1-3.046-4.207V11.536a9.639,9.639,0,0,0-1.413-.1,9.393,9.393,0,0,0-7.058,3.157,9.2,9.2,0,0,0,.415,12.693,9.556,9.556,0,0,0,.885.773A9.394,9.394,0,0,0,9.394,30a9.639,9.639,0,0,0,1.413-.1,9.362,9.362,0,0,0,5.23-2.616,9.171,9.171,0,0,0,2.751-6.526L18.762,9.806a12.374,12.374,0,0,0,2.751,1.6,12.382,12.382,0,0,0,4.844.977V7.51S26.344,7.512,26.343,7.512Z" transform="translate(0)" fill="#7c7c7c"/>
  </g>
</svg>
