<svg xmlns="http://www.w3.org/2000/svg" xmlns:xlink="http://www.w3.org/1999/xlink" width="86.531" height="30" viewBox="0 0 86.531 30">
  <defs>
    <clipPath id="clip-path">
      <rect id="Rectangle_16792" data-name="Rectangle 16792" width="86.531" height="30" fill="none"/>
    </clipPath>
  </defs>
  <g id="Group_8449" data-name="Group 8449" opacity="0.1" clip-path="url(#clip-path)">
    <path id="Path_1949" data-name="Path 1949" d="M1765.676,221.334c0-.091-.052-.134-.16-.134h-.216v.268h.216c.108,0,.16-.043.16-.134" transform="translate(-1688.923 -211.63)" fill="#333"/>
    <path id="Path_1950" data-name="Path 1950" d="M1601.492,274.9a3.577,3.577,0,0,0-1.692.385V280a2.462,2.462,0,0,0,2.25,1.116c1.25,0,2.311-1.233,2.311-3.119a2.823,2.823,0,0,0-2.869-3.1" transform="translate(-1530.584 -263.006)" fill="#333"/>
    <path id="Path_1951" data-name="Path 1951" d="M1355.6,355.446c0,1.021.77,1.674,2,1.674a3.924,3.924,0,0,0,1.865-.4v-1.9a3.439,3.439,0,0,0-2.038-.714c-.961,0-1.83.48-1.83,1.346" transform="translate(-1296.949 -338.78)" fill="#333"/>
    <path id="Path_1952" data-name="Path 1952" d="M1753.8,211.7a.7.7,0,1,0,.7.7.661.661,0,0,0-.7-.7m.208,1.056-.177-.281h-.2v.281h-.108v-.74h.324c.173,0,.264.078.264.229s-.056.195-.173.221l.195.29Z" transform="translate(-1677.251 -202.541)" fill="#333"/>
    <path id="Path_1953" data-name="Path 1953" d="M0,0V30H86.531V0ZM13.823,20.2a6.364,6.364,0,0,1-3.9-.93l.77-1.878a4.514,4.514,0,0,0,2.8.943c.593-.048,1.263-.355,1.194-1.22-.108-1.3-4.383-1.605-4.595-4.175a3.15,3.15,0,0,1,3.171-3.2,5.241,5.241,0,0,1,3.448.835l-.757,1.8a3.264,3.264,0,0,0-2.09-.774c-.653.052-1.181.428-1.134.982.125,1.5,4.292,1.458,4.521,4.223.156,1.9-1.181,3.206-3.427,3.392m7.381-.286H18.682v-9.83H21.2ZM19.937,9.133a1.518,1.518,0,0,1-1.579-1.579,1.579,1.579,0,1,1,3.158,0,1.515,1.515,0,0,1-1.579,1.579M32.094,19.915H29.576V14.663c0-1.618-.212-2.657-1.731-2.657a3.023,3.023,0,0,0-2.1,1.1v6.81H23.225v-9.83h2.518v1A4.668,4.668,0,0,1,28.858,9.8c2.1,0,3.232,1.077,3.232,3.539Zm5.2.286a6.364,6.364,0,0,1-3.9-.93l.77-1.878a4.514,4.514,0,0,0,2.8.943c.593-.048,1.263-.355,1.194-1.22-.108-1.3-4.383-1.605-4.595-4.175a3.15,3.15,0,0,1,3.171-3.2,5.241,5.241,0,0,1,3.448.835l-.757,1.8a3.264,3.264,0,0,0-2.09-.774c-.653.052-1.181.428-1.134.982.125,1.5,4.292,1.458,4.521,4.223.156,1.9-1.181,3.206-3.427,3.392m13.464-.091L48.6,14.663,46.463,20.11H45.169L41.055,10.085h2.657L46,15.857l2.367-5.715h.463l2.349,5.793,2.328-5.85h2.635L52.023,20.11Zm14.17-1.116a7.185,7.185,0,0,1-4.465,1.211c-3.02,0-4.409-1.674-4.409-3.578,0-2.254,2.155-3.1,4-3.1a5,5,0,0,1,2.462.653v-1c0-.809-.6-1.367-1.943-1.367a7.091,7.091,0,0,0-2.734.575l-.727-1.77A8.363,8.363,0,0,1,60.788,9.8c3.271,0,4.136,1.558,4.136,3.985Zm6.732,1.194a4.627,4.627,0,0,1-2.445-.848v3.405L66.69,24.021V10.89a9.656,9.656,0,0,1,4.409-1.1c2.769,0,5.348,1.713,5.348,5.175,0,2.713-1.713,5.214-4.79,5.214m4.893-9.536a.787.787,0,1,1,.787-.787.756.756,0,0,1-.787.787" fill="#333"/>
  </g>
</svg>
