<?xml version="1.0" encoding="utf-8"?>
<!-- Generator: Adobe Illustrator 24.1.2, SVG Export Plug-In . SVG Version: 6.00 Build 0)  -->
<svg version="1.1" id="Layer_1" xmlns="http://www.w3.org/2000/svg" xmlns:xlink="http://www.w3.org/1999/xlink" x="0px" y="0px"
	 viewBox="0 0 2000 693.39" style="enable-background:new 0 0 2000 693.39;" xml:space="preserve">
<style type="text/css">
	.st0{fill:#FFFFFF;}
</style>
<g>
	<g>
		<path class="st0" d="M1774,224.25c0-2.06-1.24-3.1-3.72-3.1h-4.96v6.23h4.96C1772.76,227.38,1774,226.34,1774,224.25z"/>
	</g>
	<g>
		<path class="st0" d="M1638.85,274.87c-13.35,0-29.8,3.11-39.14,8.89v108.96c15.57,21.8,32.91,25.81,52.04,25.81
			c28.91,0,53.37-28.46,53.37-72.07C1705.12,305.56,1680.66,274.87,1638.85,274.87z"/>
	</g>
	<g>
		<path class="st0" d="M1355.6,385.18c0,23.57,17.8,38.68,46.26,38.68c17.79,0,32.91-3.55,43.14-9.33V370.5
			c-9.33-8.01-28.46-16.46-47.14-16.46C1375.61,354.04,1355.6,365.16,1355.6,385.18z"/>
	</g>
	<g>
		<path class="st0" d="M1769.26,211.71c-9.52,0-16.18,6.65-16.18,16.18s6.65,16.18,16.18,16.18c9.68,0,16.18-6.5,16.18-16.18
			C1785.44,218.06,1779.09,211.71,1769.26,211.71z M1774.08,236.11l-4.13-6.54h-4.63v6.54h-2.48v-17.15h7.55
			c4.02,0,6.12,1.81,6.12,5.29c0,2.82-1.35,4.55-3.98,5.11l4.5,6.74H1774.08z"/>
	</g>
	<g>
		<path class="st0" d="M0,0v693.39l2000,0V0L0,0z M319.47,466.93c-40.34,3.34-70.89-9.76-90.15-21.53l17.82-43.43
			c14.84,12.17,43.46,23.61,64.74,21.85c13.73-1.14,29.22-8.22,27.57-28.17c-2.5-30.13-101.26-37.13-106.19-96.52
			c-2.9-35.01,25.45-69.93,73.31-73.9c41.67-3.45,68.37,11.74,79.7,19.28l-17.53,41.62c-4.35-4.11-26.62-19.67-48.33-17.87
			c-15.07,1.25-27.3,9.86-26.24,22.7c2.87,34.59,99.2,33.74,104.49,97.57C402.3,432.39,371.33,462.63,319.47,466.93z M490.11,460.33
			h-58.26V233.06h58.26V460.33z M460.75,211.1c-20.9,0-36.46-14.67-36.46-36.47c0-21.78,15.57-36.47,36.46-36.47
			c22.24,0,36.47,15.14,36.47,36.47C497.23,196.42,482.1,211.1,460.75,211.1z M741.82,460.33h-58.26V338.93
			c0-37.38-4.9-61.39-40.03-61.39c-20.01,0-42.26,16.02-48.48,25.35v157.44h-58.26V233.06h58.26v23.15
			c11.11-10.68,37.36-29.81,72.04-29.81c48.48,0,74.72,24.91,74.72,81.84V460.33z M861.87,466.93
			c-40.34,3.34-70.89-9.76-90.15-21.53l17.82-43.43c14.84,12.17,43.46,23.61,64.74,21.85c13.73-1.14,29.22-8.22,27.57-28.17
			c-2.5-30.13-101.26-37.13-106.19-96.52c-2.9-35.01,25.45-69.93,73.31-73.9c41.67-3.45,68.37,11.74,79.7,19.28l-17.53,41.62
			c-4.35-4.11-26.62-19.67-48.33-17.87c-15.07,1.25-27.3,9.86-26.24,22.7c2.87,34.59,99.2,33.74,104.49,97.57
			C944.69,432.39,913.72,462.63,861.87,466.93z M1173.02,464.79l-49.81-125.86l-49.36,125.86h-29.8l-95.18-231.73h61.38
			l52.92,133.43l54.7-132.09h10.68l54.26,133.87l53.82-135.22h60.93l-95.18,231.73H1173.02z M1500.59,438.99
			c-17.34,13.79-50.7,28.02-103.18,28.02c-69.83,0-101.85-38.7-101.85-82.72c0-52.05,49.81-71.62,92.51-71.62
			c15.57,0,44.03,5.34,56.93,15.14v-23.13c0-18.69-13.79-31.6-44.92-31.6c-29.36,0-54.27,9.35-63.16,13.35l-16.9-40.91
			c20.47-9.8,48.48-19.13,84.95-19.13c75.61,0,95.62,36.03,95.62,92.06V438.99z M1656.2,466.55c-17.8,0-41.36-8.45-56.49-19.55
			v78.75l-58.26,29.54V251.74c32.03-17.34,70.28-25.35,101.85-25.35c64.05,0,123.65,39.59,123.65,119.64
			C1766.94,408.74,1727.36,466.55,1656.2,466.55z M1769.26,246.13c-10.45,0-18.23-7.33-18.23-18.23c0-10.89,7.78-18.23,18.23-18.23
			c11.12,0,18.23,7.57,18.23,18.23C1787.49,238.79,1779.93,246.13,1769.26,246.13z"/>
	</g>
</g>
</svg>
