<?xml version="1.0" encoding="utf-8"?>
<!-- Generator: Adobe Illustrator 26.5.0, SVG Export Plug-In . SVG Version: 6.00 Build 0)  -->
<svg version="1.1" id="Layer_1" xmlns="http://www.w3.org/2000/svg" xmlns:xlink="http://www.w3.org/1999/xlink" x="0px" y="0px"
	 viewBox="0 0 125 99.3" style="enable-background:new 0 0 125 99.3;" xml:space="preserve">
<style type="text/css">
	.st0{fill:none;}
	.st1{fill:#FFFFFF;}
</style>
<rect y="0.1" class="st0" width="125" height="99.2"/>
<g>
	<path class="st1" d="M68.6,80.6c7-10.9,17.9-28.2,22.1-35.9c0.8-1.5,1.3-3.2,1.8-4.8c0.8-2.7,1.2-5.6,1.2-8.6
		C93.8,14,79.8,0,62.5,0C45.2,0,31.2,14,31.2,31.3c0,3,0.4,5.8,1.2,8.6c0.5,1.7,1,3.3,1.8,4.8c4.2,7.7,15.2,25,22.1,35.9
		c-14.3,0.9-25.1,4.7-25.1,9.3c0,5.2,13.9,9.5,31.1,9.5c17.2,0,31.1-4.2,31.1-9.5C93.5,85.3,82.8,81.4,68.6,80.6z M51.7,39.8
		c-1.9-2.4-3-5.3-3-8.6c0-7.6,6.2-13.8,13.8-13.8c7.6,0,13.8,6.2,13.8,13.8c0,3.2-1.1,6.2-3,8.6C70.7,43,66.9,45,62.5,45
		C58.1,45,54.3,43,51.7,39.8z M77.9,92.5c-4.1,1.3-9.7,2-15.6,2c-5.9,0-11.4-0.7-15.6-2c-4.2-1.3-5.8-2.8-5.8-3.7s1.5-2.4,5.8-3.7
		c3.1-1,7-1.6,11.3-1.8c2.6,4.1,4.4,6.8,4.4,6.8s1.7-2.7,4.4-6.8c4.2,0.3,8,0.9,11.1,1.8c4.2,1.3,5.8,2.8,5.8,3.7
		S82.2,91.2,77.9,92.5z"/>
</g>
</svg>
