<?xml version="1.0" encoding="utf-8"?>
<!-- Generator: Adobe Illustrator 26.5.0, SVG Export Plug-In . SVG Version: 6.00 Build 0)  -->
<svg version="1.1" id="Layer_1" xmlns="http://www.w3.org/2000/svg" xmlns:xlink="http://www.w3.org/1999/xlink" x="0px" y="0px"
	 viewBox="0 0 125 99.2" style="enable-background:new 0 0 125 99.2;" xml:space="preserve">
<style type="text/css">
	.st0{fill:none;}
	.st1{fill:#FFFFFF;}
</style>
<rect class="st0" width="125" height="99.2"/>
<g>
	<g>
		<path class="st1" d="M87.2,41.7c-6.7,8.8-18.4,8.1-24.3-0.2c-3.3,4.3-7.4,7-12.9,7c-5.5,0.1-9.7-2.6-13.2-6.7
			c-3.6,4.8-8.3,6.7-14.3,5.6c0,0.3,0,0.4,0,0.6c0,11.7,0.1,23.3,0.1,35c0,4.3,3,7.2,7.3,7.2c21.8,0,43.6,0,65.4,0
			c4.4,0,7.3-2.9,7.3-7.3c0-11.6,0-23.2,0-34.8c0-0.3,0-0.6,0-1C96.2,49,91.4,46.1,87.2,41.7z M59,87.3c-7.4,0-14.8,0-22.2,0
			c0-11.4,0-22.8,0-34.3c7.4,0,14.8,0,22.2,0C59,64.5,59,75.9,59,87.3z M89.2,69.8c0,1.6-0.7,2.3-2.3,2.3c-4.9,0-9.8,0-14.6,0
			c-1.5,0-2.2-0.7-2.2-2.3c0-4.9,0-9.8,0-14.6c0-1.5,0.8-2.2,2.3-2.2c2.5,0,4.9,0,7.4,0c2.4,0,4.8,0,7.1,0c1.6,0,2.4,0.7,2.4,2.3
			C89.2,60.1,89.2,65,89.2,69.8z M40.4,35.2c-0.2,0-0.6,0.4-0.6,0.6c-0.2,1.2-0.4,2.4-0.6,3.6c0,0.3,0.1,0.8,0.3,1
			c5.7,6.8,16.3,6.4,21.3-0.9c0.1-0.2,0.3-0.5,0.4-0.7c0-1.2,0-2.4,0-3.5c-0.2-0.1-0.3-0.1-0.3-0.1C54,35.2,47.2,35.2,40.4,35.2z
			 M65,39.7c5,6.5,14.3,6.8,19.8,0.7c0.5-0.6,0.9-1.2,0.6-2.1c-0.2-0.7-0.3-1.5-0.3-2.2c0-0.8-0.4-1-1.1-1c-6.1,0-12.3,0-18.4,0
			c-0.3,0-0.6,0-1,0c0,1.2,0,2.2,0,3.2C64.6,38.9,64.7,39.4,65,39.7z M108,32c-0.3-0.7-0.6-1.4-0.9-2c-3.4-7.3-6.8-14.6-10.2-22
			c-0.8-1.8-2.2-2.8-4.2-2.8c-3,0-5.9,0-8.9,0c-0.3,0-0.5,0-0.8,0c1.6,8.9,3.2,17.8,4.8,26.7C94.5,32,101.1,32,108,32z M79.5,5.4
			c-5,0-10,0-14.9,0c0,8.9,0,17.8,0,26.6c6.6,0,13.1,0,19.7,0C82.7,23.1,81.1,14.2,79.5,5.4z M108.2,35.2c-6.3,0-12.5,0-18.8,0
			c-0.3,0-0.6,0-1.1,0c0.3,1.5,0.2,3,0.8,4.1c1.6,2.8,4.1,4.6,7.3,5.2c5.7,1.2,11.1-2.3,12.7-8.2C109.4,35.2,109.4,35.2,108.2,35.2z
			 M36.7,35.2c-7,0-14,0-21,0c0.1,3.8,4,9.5,10.5,9.4C32.3,44.6,36.5,39.6,36.7,35.2z M61.1,32c0-8.9,0-17.8,0-26.6
			c-5.3,0-10.4,0-15.7,0c-1.7,8.9-3.3,17.7-5,26.6C47.4,32,54.2,32,61.1,32z M42,5.4c-0.3,0-0.5-0.1-0.8-0.1c-3.7,0-7.4,0-11.1,0
			c-2.4,0-3.7,0.9-4.6,3.2c-2.5,6.6-4.9,13.3-7.4,19.9c-0.4,1.1-0.8,2.3-1.3,3.5c6.7,0,13.4,0,20.1,0C38.7,23.2,40.3,14.3,42,5.4z"
			/>
	</g>
</g>
</svg>
