<?xml version="1.0" encoding="utf-8"?>
<!-- Generator: Adobe Illustrator 26.5.0, SVG Export Plug-In . SVG Version: 6.00 Build 0)  -->
<svg version="1.1" id="Layer_1" xmlns="http://www.w3.org/2000/svg" xmlns:xlink="http://www.w3.org/1999/xlink" x="0px" y="0px"
	 viewBox="0 0 125 99.3" style="enable-background:new 0 0 125 99.3;" xml:space="preserve">
<style type="text/css">
	.st0{fill:none;}
	.st1{fill:#FFFFFF;}
</style>
<rect y="0" class="st0" width="125" height="99.2"/>
<g>
	<g>
		<path class="st1" d="M26.9,63c0-3.2-0.1-6.3,0.4-9.4c0-0.2-0.1-0.4-0.2-0.6c-0.2-0.4-0.6-0.7-0.8-1c-1.4-2-1.8-4.3-1.6-6.7
			c0.1-1.4,0.5-2.8,1.1-4.1c0.1-0.2,0.1-0.6,0-0.8c-0.4-1.1-0.8-2.1-1.1-3.2c-1.2-3.6-2-7.3-2.5-11c0-0.1-0.1-0.3-0.1-0.4
			c-4.1,8.4-5.4,17.2-3.9,26.4c1.2,7.8,4.5,14.7,9.2,21c0.1,0,0.1,0,0.2-0.1c-0.1-0.4-0.1-0.8-0.2-1.2C26.9,68.9,26.9,65.9,26.9,63z
			 M86.8,15.5c1.4,0.4,2.8,0.9,4.2,1.3c2.9,0.9,5.8,2.2,8.5,3.5c0.2,0.1,0.4,0.2,0.6,0.2c0,0,0-0.1,0.1-0.1
			c-0.1-0.2-0.3-0.4-0.4-0.6c-2.1-3.1-4.6-5.9-7.4-8.4c-1.4-1.3-3-2.4-4.5-3.6C87.5,7.7,87.3,7.7,87,8c-0.9,1.6-1.8,3.2-2.7,4.8
			c-0.1,0.1-0.1,0.4,0,0.4C85,14.2,85.6,15.2,86.8,15.5z M75.8,23.4c0.1-0.3,0-0.5-0.2-0.6c-1.9-1-3.4-2.5-4.5-4.3
			c-0.1-0.2-0.3-0.5-0.5-0.7c-0.1-0.1-0.4-0.2-0.6-0.2c-4.7,0.4-9.4,1.5-13.8,3.3c-8.6,3.6-15.2,9.5-19.9,17.6c-0.2,0.4-0.2,0.7,0,1
			c0.4,0.7,0.9,1.3,1.2,2.1c1.1,2.7,1.1,5.5,0.2,8.3c-0.1,0.3-0.2,0.5,0.1,0.8c2.8,2.6,5.8,5,9,7c5.5,3.4,11.5,5.7,17.7,7.4
			c0.6,0.2,1.3,0.3,2,0.5c0.1-0.1,0.3-0.2,0.5-0.3c1.3-1,2.5-2,4.1-2.6c0.3-0.1,0.4-0.3,0.4-0.7c0-2.6,0-5.1,0-7.7
			c0-5.6,0.1-11.3,1.1-16.8C73.4,32.6,74.2,28,75.8,23.4z M32.9,36.7c0.6-1,1.2-2.1,1.9-3c4.8-7.1,11.2-12.3,19-15.7
			c5.1-2.2,10.4-3.4,16-3.8c0.4,0,0.6-0.2,0.8-0.6c0.7-1.7,2.1-2.8,3.9-3.1c1.9-0.3,3.9-0.3,5.7,0.4c0.7,0.2,0.7,0.2,1-0.3
			c0.8-1.4,1.6-2.7,2.4-4.1c0.5-0.9,0.7-0.8-0.4-1.3c-6.5-3.3-13.4-5-20.7-5.1c-1,0.1-2,0.1-2.9,0.2c-6.2,0.4-12.1,2.1-17.6,4.9
			C35,8.7,29.4,13.9,25,20.3c-0.7,1-0.9,2-0.7,3.2c0.4,2.6,1,5.1,1.8,7.6c0.7,2.2,1.6,4.3,2.5,6.5c0.1,0.2,0.2,0.4,0.4,0.2
			c1-0.6,2.1-0.6,3.2-0.7C32.5,37.1,32.7,36.9,32.9,36.7z M107,38.1c-0.6-3.9-1.8-7.7-3.4-11.3c-0.5-1.1-1.2-1.9-2.3-2.4
			c-3.2-1.6-6.4-2.9-9.7-4c-1.3-0.4-2.6-0.8-4-1.1c-0.5-0.1-0.6-0.1-0.6,0.5c0,0.7-0.2,1.3-0.6,1.9c-0.7,1-1.6,1.6-2.7,2
			c-1.2,0.5-2.5,0.6-3.7,0.7c-0.3,0-0.5,0.1-0.6,0.5c-0.5,1.8-1,3.6-1.4,5.5c-1,4.3-1.7,8.7-2.1,13.1c-0.3,3.2-0.3,6.4-0.5,9.3
			c0.1,3,0.2,5.7,0.3,8.5c0,0.4,0.1,0.5,0.5,0.6c0.6,0,1.2,0.1,1.8,0.3c2.5,0.7,4.3,2.3,5.4,4.7c0.1,0.3,0.3,0.4,0.7,0.4
			c3.7-0.2,7.3-0.5,11-1.1c2.6-0.4,5.2-0.9,7.7-1.7c0.2-0.1,0.4-0.2,0.5-0.4c0.7-1.6,1.4-3.3,1.9-5c1.3-3.8,2-7.8,2.2-11.8
			C107.5,44.2,107.4,41.1,107,38.1z M88.2,70.8c-1.4,0.2-2.8,0.2-4.2,0.4c-0.5,0-1,0.2-1.2,0.7c-1,1.8-2.4,3.2-4.3,4.1
			c-0.3,0.1-0.4,0.3-0.3,0.6c0.9,2.9,1.8,5.9,2.7,8.8c0.2,0.5,0.2,0.5,0.8,0.3c0.1,0,0.2-0.1,0.3-0.1c1.5-0.8,3.1-1.6,4.5-2.5
			c5.7-3.6,10.3-8.4,14-13.9c0.1-0.2,0.2-0.3,0.3-0.6c-0.6,0.2-1.1,0.4-1.6,0.5C95.6,69.8,91.9,70.4,88.2,70.8z M76.9,86
			c-1-2.7-2-5.4-2.6-8.2c-0.1-0.4-0.3-0.6-0.7-0.6c-0.6,0-1.2,0-1.8-0.1c-3.5-0.5-6.6-3.1-6.7-6.6c0-0.5-0.3-0.7-0.7-0.8
			c-5.1-1.2-10-2.8-14.7-5c-4.3-2-8.2-4.5-11.7-7.7c-1-0.9-1.9-1.8-2.8-2.6c-0.1-0.1-0.4-0.2-0.5-0.1c-1,0.7-2.2,0.9-3.4,1
			c-0.3,0-0.4,0.2-0.4,0.4c-0.1,0.7-0.2,1.5-0.2,2.2c-0.1,2.3-0.2,4.7-0.3,7c0.1,3.9,0.2,7.7,0.9,11.5c0.2,0.9,0.5,1.6,1.2,2.2
			c1.2,1,2.4,2,3.7,2.9c6.3,4.6,13.4,7.4,21.1,8.4c5.2,0.6,10.4,0.3,15.5-0.9c1.5-0.4,2.9-0.8,4.3-1.2c0.3-0.1,0.4-0.2,0.3-0.6
			C77.2,86.7,77,86.3,76.9,86z"/>
	</g>
</g>
</svg>
