<?xml version="1.0" encoding="utf-8"?>
<!-- Generator: Adobe Illustrator 26.5.0, SVG Export Plug-In . SVG Version: 6.00 Build 0)  -->
<svg version="1.1" id="Layer_1" xmlns="http://www.w3.org/2000/svg" xmlns:xlink="http://www.w3.org/1999/xlink" x="0px" y="0px"
	 viewBox="0 0 125 99.2" style="enable-background:new 0 0 125 99.2;" xml:space="preserve">
<style type="text/css">
	.st0{fill:none;}
	.st1{fill:#FFFFFF;}
</style>
<rect class="st0" width="125" height="99.2"/>
<g>
	<g>
		<path class="st1" d="M90.2,33.3c2.1-0.1,3.6-1.1,4.4-3.1c0.9-2.2,1-4.6,0.2-6.9c-0.8-2.3-2.6-3.6-5-3.6c-2.4,0-4.2,1.2-5,3.6
			c-0.3,0.9-0.4,2-0.7,2.9c0.1,1.6,0.4,3.2,1.3,4.5C86.5,32.6,88.1,33.4,90.2,33.3z M112.4,23.3c-0.7-5.5-5.2-10-11-9.9
			c-7.2,0.1-14.4,0-21.6,0c-18.8,0-37.6,0-56.5,0c-3.1,0-5.7,1.2-7.8,3.6c-2.1,2.4-3,5.2-3,8.3c0,13.4,0,26.8,0,40.2
			c0,2.3-0.1,4.6,0.2,6.8c0.7,5.4,5.1,9.8,10.9,9.8c13-0.1,25.9,0,38.9,0c2.3,0,4.6,0,6.9,0c10.7,0,21.5,0,32.2,0
			c2,0,3.9-0.5,5.6-1.6c3.6-2.5,5.2-6,5.2-10.3c0-14.8,0-29.6,0-44.4C112.5,24.9,112.5,24.1,112.4,23.3z M82.6,22.7
			c1.2-3.4,4.3-5.4,7.8-5.1c3.6,0.2,6.3,2.6,7.1,6.3c0.2,0.8,0.2,1.7,0.3,2.5c0,1.8-0.4,3.5-1.2,5c-1.4,2.7-3.7,4-6.7,4
			c-2.9,0-5.2-1.2-6.6-3.8C81.6,28.7,81.6,25.7,82.6,22.7z M82.9,41.8c-0.3-0.2-0.7-0.3-1.1-0.4c-1.2-0.4-1.6-0.9-1.5-1.8
			c0.2-0.9,0.9-1.4,2-1.3c1.1,0.1,1.7,0.6,1.8,1.9c-0.4-0.2-0.6-0.4-0.8-0.6c-0.4-0.2-0.7-0.5-1.1-0.6c-0.5-0.1-1,0.1-1,0.6
			c0,0.3,0.4,0.7,0.7,0.9c0.4,0.2,0.9,0.3,1.4,0.5c0.7,0.3,1,0.9,1,1.6c-0.1,0.8-0.5,1.2-1.2,1.5c-1.5,0.5-2.7-0.3-2.8-1.9
			c0.2,0.2,0.5,0.3,0.7,0.5c0.4,0.7,1,0.9,1.7,0.7c0.3-0.1,0.7-0.4,0.7-0.7C83.4,42.5,83.1,42,82.9,41.8z M70.8,18.7
			c0-0.3,0.2-0.8,0.3-0.8c0.6-0.1,1.2,0,1.8,0.1c0.1,0,0.1,0.5,0.1,0.8c0,4.4,0,8.8,0,13.2c0,0.3,0,0.6,0,1.1c3,0,5.9,0,8.8,0
			c0.1,0.1,0.1,0.2,0.1,0.2c-0.3,1.9-0.3,1.9-2.2,1.9c-2.6,0-5.2,0-7.8,0c-0.3,0-0.6,0-1,0c0-0.3-0.1-0.6-0.1-0.8
			C70.8,29.2,70.8,23.9,70.8,18.7z M78.4,39c0-0.2,0.2-0.4,0.4-0.6c0.1,0.2,0.4,0.4,0.4,0.6c0,1.6,0,3.2,0,4.7
			c0,0.2-0.2,0.4-0.4,0.6c-0.1-0.2-0.4-0.4-0.4-0.6c0-0.8,0-1.6,0-2.4C78.4,40.5,78.4,39.7,78.4,39z M73.2,40.8c0.5,0,1.1,0,1.6,0
			c0.5,0,0.7,0.2,0.5,0.8c-0.9,0-1.7,0-2.7,0c0,0.5-0.1,1,0,1.5c0,0.2,0.4,0.4,0.6,0.4c0.8,0.1,1.5,0,2.3,0c0.1,0.1,0.1,0.1,0.2,0.2
			c-0.2,0.2-0.3,0.5-0.5,0.5c-1.1,0.1-2.2,0-3.3,0c0-2,0-3.8,0-5.9c1.1,0,2.2,0,3.3,0c0.1,0,0.3,0.3,0.4,0.4
			c-0.1,0.1-0.2,0.3-0.4,0.3c-0.7,0-1.3,0.1-2,0c-0.6,0-0.6,0.3-0.6,0.8C72.6,40.4,72.5,40.8,73.2,40.8z M70.5,38.5
			c0,1.9,0,3.8,0,5.7c-0.6,0.2-0.8,0-0.7-0.5c0-1,0-2,0-3.1c-0.1,0-0.1,0-0.2,0c-0.4,1-0.8,2-1.2,3c-0.1,0.3-0.4,0.5-0.6,0.7
			c-0.2-0.3-0.5-0.5-0.6-0.8c-0.4-1-0.8-1.9-1.3-2.9c0,1.2,0,2.4,0,3.5c-0.6,0.2-0.8,0-0.8-0.5c0-1.6,0-3.1,0-4.7
			c0-0.2,0.3-0.6,0.3-0.6c0.3,0.1,0.6,0.2,0.7,0.4c0.6,1.3,1,2.6,1.6,4.1c0.6-1.4,1.1-2.7,1.6-3.9C69.5,38.5,69.9,38.2,70.5,38.5z
			 M58.2,31.7c0-4.3,0-8.6,0-12.9c0-0.3,0.1-0.9,0.3-0.9c0.6-0.1,1.2,0,1.8,0.1c0.1,0,0.1,0.5,0.1,0.8c0,4.4,0,8.8,0,13.1
			c0,0.3,0,0.6,0,1.1c3,0,5.9,0,8.9,0c-0.1,0.7-0.2,1.3-0.3,1.8c0,0.2-0.3,0.3-0.5,0.3c-3.2,0-6.5,0-9.7,0c-0.5,0-0.5-0.2-0.5-0.6
			C58.2,33.6,58.2,32.7,58.2,31.7z M64.4,44.2c-0.7,0.3-0.9-0.2-1-0.6c-0.5-1.3-0.8-1.5-2.1-1.2c-0.3,0.1-0.6,0.7-0.8,1.1
			c-0.2,0.4-0.3,0.9-1,0.6c0.1-0.3,0.2-0.6,0.3-0.8c0.5-1.5,1.1-2.9,1.6-4.3c0.1-0.2,0.4-0.6,0.5-0.6c0.2,0,0.5,0.3,0.6,0.5
			c0.6,1.5,1.2,3,1.8,4.6C64.3,43.7,64.3,43.9,64.4,44.2z M58,39.1c0-0.2,0.2-0.5,0.4-0.7c0.1,0.2,0.4,0.5,0.4,0.7
			c0,1.5,0,2.9,0,4.4c0,0.2-0.2,0.5-0.3,0.7c-0.3-0.2-0.7-0.2-0.8-0.5c-0.7-1-1.3-2-2-3.1c-0.1-0.2-0.3-0.4-0.6-0.6
			c0,0.4-0.1,0.8-0.1,1.2c0,0.8,0,1.6,0,2.4c0,0.5-0.1,0.7-0.7,0.5c0-1.9,0-3.8,0-5.7c0.6-0.3,0.9,0,1.2,0.5
			c0.8,1.2,1.6,2.4,2.5,3.5C57.9,41.4,57.9,40.2,58,39.1z M45.3,17.8c3.1,0,6.3,0,9.4,0c0.6,0,0.8,0.2,0.8,0.8
			c0,1.6,0.1,1.3-1.3,1.3c-2.3,0-4.5,0-6.8,0c-0.6,0-0.8,0.2-0.8,0.7c0,1.2,0,2.4,0,3.6c0,0.6,0.2,0.7,0.8,0.7c2.2,0,4.4,0,6.6,0
			c0.3,0,0.6,0,0.9,0c0.1,0.2,0.1,0.2,0.1,0.2c0.2,1.9,0.2,1.9-1.7,1.9c-2,0-3.9,0-5.9,0c-0.6,0-0.8,0.2-0.8,0.7c0,1.5,0,2.9,0,4.4
			c0,0.6,0.2,0.8,0.8,0.8c2.5,0,5,0,7.4,0c0.3,0,0.6,0,1,0c-0.1,0.7-0.2,1.2-0.3,1.8c0,0.1-0.3,0.3-0.4,0.3c-3.6,0-7.1,0-10.7,0
			c0-0.3,0-0.6,0-0.9c0-5.2,0-10.4,0-15.6C44.5,18.1,44.6,17.8,45.3,17.8z M49.7,44.2c-0.1,0-0.2,0.1-0.3,0.1
			c-0.2-0.2-0.6-0.3-0.6-0.5c0.3-2-1-3.3-1.8-4.8c-0.1-0.2-0.1-0.3-0.2-0.5c0.1-0.1,0.1-0.2,0.2-0.2c0.3,0.2,0.7,0.3,0.8,0.6
			c0.5,0.7,0.9,1.4,1.3,2.2c1-0.7,0.9-2.4,2.6-2.7C50.9,40.3,49,41.8,49.7,44.2z M40.8,39.1c0-0.2,0.2-0.4,0.4-0.7
			c0.2,0.2,0.6,0.3,0.7,0.5c0.6,1.3,1,2.6,1.6,4c0.2-0.5,0.4-0.9,0.6-1.3c0.3-0.8,0.7-1.7,1-2.5c0.2-0.6,0.5-0.8,1.2-0.5
			c0,1.8,0,3.6,0,5.4c0,0.1-0.3,0.2-0.4,0.4c-0.1-0.2-0.3-0.3-0.3-0.5c0-1.1,0-2.1,0-3.2c-0.1,0-0.2,0-0.2-0.1c-0.4,1-0.8,2-1.2,3
			c-0.1,0.3-0.4,0.5-0.6,0.7c-0.2-0.2-0.4-0.4-0.6-0.7c-0.4-1-0.8-2-1.3-2.9c0,1.2,0,2.4,0,3.6c-0.6,0.2-0.8,0-0.8-0.5
			C40.8,42.1,40.8,40.6,40.8,39.1z M27.3,33.8c0-5,0-9.9,0-14.9c0-0.3,0.1-1,0.3-1c0.6-0.1,1.2-0.1,1.8,0c0.1,0,0.2,0.5,0.2,0.7
			c0,1.8,0,3.5,0,5.3c0,0.3,0,0.6,0,1c2.9,0,5.6,0,8.4,0c0.6,0,0.5-0.4,0.5-0.7c0-1.9,0-3.7,0-5.6c0-0.7,0.2-1,0.9-0.9
			c0.2,0,0.3,0,0.5,0c0.7-0.1,0.8,0.2,0.8,0.8c0,4.1,0,8.1,0,12.2c0,1.4,0,2.8,0,4.3c-0.7,0-1.4,0-2.2,0c0-2.6,0-5.3,0-8
			c-3,0-5.9,0-8.9,0c0,0.4,0,0.7,0,1c0,2.1,0,4.1,0,6.2c0,0.6-0.1,0.9-0.8,0.8C27.1,35.1,27.3,35.4,27.3,33.8z M105,76.4
			c-28.3,0-56.7,0-85,0c-0.6,0-0.9,0-0.9-0.8c0-9,0-18,0-27c0-0.2,0-0.5,0-0.8c29,0,57.8,0,86.8,0c0,0.3,0.1,0.5,0.1,0.7
			c0,9,0,18,0,27C106,76.3,105.7,76.4,105,76.4z M61.7,39.9c-0.2,0.5-0.4,1.1-0.6,1.7c0.5,0,0.9,0,1.4,0c-0.3-0.6-0.5-1.2-0.7-1.7
			C61.8,39.8,61.8,39.9,61.7,39.9z"/>
	</g>
</g>
</svg>
