<?xml version="1.0" encoding="utf-8"?>
<!-- Generator: Adobe Illustrator 26.5.0, SVG Export Plug-In . SVG Version: 6.00 Build 0)  -->
<svg version="1.1" id="Layer_1" xmlns="http://www.w3.org/2000/svg" xmlns:xlink="http://www.w3.org/1999/xlink" x="0px" y="0px"
	 viewBox="0 0 125 99.3" style="enable-background:new 0 0 125 99.3;" xml:space="preserve">
<style type="text/css">
	.st0{fill:none;}
	.st1{fill:#FFFFFF;}
</style>
<rect y="0" class="st0" width="125" height="99.2"/>
<g>
	<path class="st1" d="M20,44c0.8,0,1.3,0.1,1.9,0.1c17.7,0,35.4,0,53.1,0c1.5,0,1.9-0.5,1.9-1.9c-0.1-12.4-0.1-24.9,0-37.3
		c0-1.5-0.4-1.9-1.9-1.9c-17.7,0-35.3,0-53,0c-0.6,0-1.2,0-2,0c0.3,0.8,0.5,1.4,0.7,1.9c2.3,5.7,4.7,11.5,7,17.2c0.4,1,0.4,1.9,0,3
		c-2.2,5.4-4.4,10.8-6.6,16.2C20.7,42,20.4,42.9,20,44z M84.4,46.4c0-14.2,0-28.3,0-42.5c0-0.5,0-0.9,0-1.4C84.2,1,83.2,0,81.8,0
		c-1.4,0-2.5,0.9-2.7,2.3C79,2.9,79,3.4,79,4c0,28.2,0,53.7,0,81.9c0,0.7,0,1.4,0.2,2c0.3,1.3,1.6,2.2,2.8,2c1.4-0.2,2.3-1,2.4-2.5
		c0.1-0.7,0-1.5,0-2.2C84.4,71.4,84.4,60.3,84.4,46.4z"/>
	<g>
		<path class="st1" d="M20,44c0.4-1.1,0.7-1.9,1.1-2.8c2.2-5.4,4.4-10.8,6.6-16.2c0.4-1,0.4-1.9,0-3c-2.4-5.7-4.7-11.5-7-17.2
			c-0.2-0.5-0.4-1-0.7-1.9c0.8,0,1.4,0,2,0c17.7,0,35.3,0,53,0c1.5,0,1.9,0.4,1.9,1.9c-0.1,12.4-0.1,24.9,0,37.3
			c0,1.5-0.4,2-1.9,1.9c-17.7,0-35.4,0-53.1,0C21.3,44.1,20.8,44,20,44z"/>
	</g>
	<g>
		<path class="st1" d="M84.4,46.4c0,13.9,0,25,0,39c0,0.7,0,1.5,0,2.2c-0.1,1.5-1,2.2-2.4,2.5c-1.2,0.2-2.5-0.7-2.8-2
			C79,87.3,79,86.6,79,86c0-28.2,0-53.7,0-81.9c0-0.6,0-1.2,0.1-1.7C79.3,0.9,80.4,0,81.8,0c1.4,0,2.4,1,2.6,2.4c0,0.5,0,0.9,0,1.4
			C84.4,18,84.4,32.2,84.4,46.4z"/>
	</g>
</g>
</svg>
