<?xml version="1.0" encoding="utf-8"?>
<!-- Generator: Adobe Illustrator 26.5.0, SVG Export Plug-In . SVG Version: 6.00 Build 0)  -->
<svg version="1.1" id="Layer_1" xmlns="http://www.w3.org/2000/svg" xmlns:xlink="http://www.w3.org/1999/xlink" x="0px" y="0px"
	 viewBox="0 0 125 99.2" style="enable-background:new 0 0 125 99.2;" xml:space="preserve">
<style type="text/css">
	.st0{fill:none;}
	.st1{fill:#FFFFFF;}
</style>
<rect class="st0" width="125" height="99.2"/>
<g>
	<g>
		<path class="st1" d="M115.8,28.7l-3.9,1.3v-4h-2.7v4l-3.9-1.2l-0.8,2.6l3.8,1.2l-2.3,3.3l2.2,1.6l2.4-3.3l2.4,3.3l2.2-1.6
			l-2.3-3.3l3.8-1.2L115.8,28.7z M117.3,13.4H86.4c-3.3-7.3-8.9-11.8-17-12.8C65.2,0,61,0.3,56.9,0.3c-0.8,0-1.7,0.1-2.5,0.2
			C43.8,2.3,36.3,11.3,36.3,21.9c0,3.6,0,7.3,0,10.9c0,0.5,0,1.1,0,1.6c-0.2,0.1-0.4,0.1-0.6,0.2c-4.1,1.1-6.5,4.3-6.5,8.5
			c0,12.8,0,25.5,0,38.3c0,4.9,3.7,8.7,8.6,8.7c16.4,0,32.8,0,49.2,0c4.8,0,8.6-3.9,8.6-8.6c0-11,0-21.9,0-32.9h21.7
			c4.3,0,7.7-3.5,7.7-7.7V21.1C125,16.8,121.5,13.4,117.3,13.4z M43.3,33.3c0-3.7,0-7.3,0-11c0-7.4,4.6-13.1,11.8-14.6
			c0.4-0.1,0.8-0.1,1.3-0.2c3.8,0,7.5-0.2,11.3,0c4.4,0.2,8.2,2.5,10.6,5.8h-5.7c-4.3,0-7.7,3.5-7.7,7.7v13.2c-7.2,0-14.3,0-21.6,0
			C43.3,34,43.3,33.6,43.3,33.3z M67.2,63.1c-0.7,0.4-0.8,0.7-0.8,1.4c0,2.8,0,5.7,0,8.5c0,2-1.3,3.1-3.4,3c-2,0-3.2-1.2-3.3-3.1
			c0-0.9,0-1.8,0-2.6c0-0.5,0-1.1,0-1.6c0-1.4,0-2.9,0-4.3c0-0.6-0.2-0.9-0.7-1.1c-3.7-1.8-5.6-5.7-4.7-9.7c0.9-3.9,4.5-6.7,8.7-6.6
			c4,0,7.6,2.9,8.4,6.7C72.3,57.6,70.6,61.3,67.2,63.1z M122.3,41c0,2.8-2.3,5-5,5H95.6h-8.7c-0.6,0-1.1,0.2-1.5,0.6l-7.6,7.6v-6.1
			c0-1.2-1-2.1-2.1-2.1h-3c-2.8,0-5-2.3-5-5v-6.7V21.1c0-2.8,2.3-5,5-5h7.2h7.5h29.9c2.8,0,5,2.3,5,5V41z M84.5,28.7L80.6,30v-4
			h-2.7v4l-3.9-1.2l-0.8,2.6l3.8,1.2l-2.3,3.3l2.2,1.6l2.4-3.3l2.4,3.3l2.2-1.6l-2.3-3.3l3.8-1.2L84.5,28.7z M100.1,28.5l-3.9,1.3
			v-4h-2.7v4l-3.9-1.2l-0.8,2.6l3.8,1.2l-2.3,3.3l2.2,1.6l2.4-3.3l2.4,3.3l2.2-1.6l-2.3-3.3l3.8-1.2L100.1,28.5z"/>
	</g>
</g>
</svg>
