<?xml version="1.0" encoding="utf-8"?>
<!-- Generator: Adobe Illustrator 26.5.0, SVG Export Plug-In . SVG Version: 6.00 Build 0)  -->
<svg version="1.1" id="Layer_1" xmlns="http://www.w3.org/2000/svg" xmlns:xlink="http://www.w3.org/1999/xlink" x="0px" y="0px"
	 viewBox="0 0 125 99.2" style="enable-background:new 0 0 125 99.2;" xml:space="preserve">
<style type="text/css">
	.st0{fill:none;}
	.st1{fill:#FFFFFF;}
</style>
<rect class="st0" width="125" height="99.2"/>
<g>
	<path class="st1" d="M106.6,87c-1.2-3.6-3.4-7.3-6.6-9.4c-6.2-4.1-13.5-6.3-20.5-8.7c-1.7-0.6-3.4-1.2-5-2.2
		c-1.4-0.8-1.9-2.5-2.2-4c-0.1-0.8-0.2-1.6-0.3-2.4c5.1-7,8.5-18.3,8.5-27.6c0-14.5-8.2-18.6-18.3-18.6c-10.1,0-18.3,4-18.3,18.6
		c0,9.6,3.6,21.5,9,28.3c0,0.5-0.1,1.1-0.2,1.6c-0.3,1.5-0.8,3.1-2.2,3.9c-1.5,0.9-3.3,1.5-5,2.1c-7,2.4-14.3,4.4-20.5,8.6
		c-3.2,2.1-5.4,6-6.6,9.7c-1.2,3.8-1.8,8.4-1.7,12.2h45.8h45.8C108.4,95.4,107.9,90.8,106.6,87z"/>
</g>
</svg>
